# xmcd CD database file
#
# Track frame offsets:
#	150
#	18701
#	38563
#	57749
#	79100
#	101805
#	116307
#	135321
#	156708
#	176394
#	194841
#	215150
#	236155
#	256660
#	284089
#	311809
#
# Disc length: 4398 seconds
#
# Revision: 0
# Processed by: cddbd v1.5.2PL0 Copyright (c) Steve Scherf et al.
# Submitted via: CDex 1.70beta2
#
DISCID=f5112c10
DTITLE=Artistes divers - Salsa Latina
DYEAR=2009
DGENRE=Salsa
TTITLE0=Gloria Estefan|Oye mi canto
TTITLE1=Joe Arroyo y la Verdad|La noche
TTITLE2=N'Klabe|I love salsa
TTITLE3=Spanish Harlem Orquestra|La banda
TTITLE4=Adalberto Alvarez|Si no fuera por las mujeres
TTITLE5=Cheo Feliciano|Oye como va
TTITLE6=Compay Segundo|Saludo compay
TTITLE7=Jesus Pagan y su Orquestra|Ritmo sabroso
TTITLE8=Puerto Rican Power|Me tiene loco
TTITLE9=Los Van Van|Estoy te pone la cabeza mala
TTITLE10=Kevin Ceballo|Por eso te quiero
TTITLE11=Luisito Carrion|Para ser real
TTITLE12=Manolito Simonet|Locos por mi habana
TTITLE13=Pupy y los Que Son Son|Si me quieres conocer
TTITLE14=Conjunto Massalia|Partage
TTITLE15=Mosquito Salsa Club|La polkita
EXTD=YEAR: 2009
EXTT0=
EXTT1=
EXTT2=
EXTT3=
EXTT4=
EXTT5=
EXTT6=
EXTT7=
EXTT8=
EXTT9=
EXTT10=
EXTT11=
EXTT12=
EXTT13=
EXTT14=
EXTT15=
PLAYORDER=
